<svg xmlns="http://www.w3.org/2000/svg" fill="none" viewBox="0 0 200 200" stroke-width=".75" height="400" width="400"><g id="Technology-Virtual-reality-01"><g id="color 2"><path id="Vector" fill="#1f00f3" d="M158.863 84.7061L158.563 82.7061C158.509 82.3555 158.525 81.9978 158.61 81.6533C158.694 81.3089 158.846 80.9845 159.056 80.6986C159.266 80.4128 159.53 80.1711 159.833 79.9874C160.137 79.8037 160.473 79.6816 160.824 79.6281L156.758 80.2361C156.13 80.3337 155.557 80.6488 155.138 81.1262C154.72 81.6037 154.482 82.2131 154.467 82.8481L146.746 83.8481C147.715 84.7601 148.608 85.6481 149.311 86.4321L154.902 85.7561C155.093 86.3666 155.497 86.8888 156.039 87.2285C156.581 87.5682 157.227 87.7032 157.86 87.6091L161.9 87.0001C161.55 87.0522 161.192 87.0339 160.849 86.9464C160.505 86.8588 160.183 86.7038 159.9 86.4902C159.617 86.2766 159.38 86.0088 159.202 85.7025C159.024 85.3962 158.909 85.0574 158.863 84.7061Z"></path><path id="Vector_2" fill="#1f00f3" d="M67.971 64.718C63.145 62.5 55.849 52.939 54.5 55.523C53.8 56.853 62.841 73.838 63.525 76.308C66.6189 74.2664 70.145 72.972 73.825 72.527C72.587 70.114 72.777 66.941 67.971 64.718Z"></path><path id="Vector_3" fill="#1f00f3" d="M49.845 105.206C48.5944 105.038 47.323 105.115 46.102 105.434C40.934 106.649 29.763 103.553 29.839 106.46C29.896 108.378 49.56 116.188 50.358 116.985C51.4137 113.64 53.1909 110.568 55.564 107.985C53.8 107.163 52.372 105.605 49.845 105.206Z"></path><path id="Vector_4" fill="#1f00f3" d="M175.507 27.4C173.964 27.4958 172.485 28.0468 171.256 28.9834C170.026 29.92 169.102 31.2001 168.6 32.6619C168.099 34.1237 168.042 35.7014 168.436 37.1956C168.831 38.6898 169.66 40.0334 170.819 41.0563C171.977 42.0793 173.413 42.7357 174.945 42.9427C176.476 43.1496 178.035 42.8977 179.423 42.2188C180.812 41.5399 181.968 40.4646 182.745 39.1287C183.522 37.7929 183.886 36.2565 183.79 34.714C183.727 33.6896 183.463 32.6876 183.013 31.7654C182.562 30.8432 181.934 30.0188 181.165 29.3395C180.396 28.6602 179.5 28.1392 178.529 27.8064C177.558 27.4736 176.531 27.3355 175.507 27.4ZM171.878 38.86C171.566 38.7659 171.289 38.5815 171.082 38.3299C170.875 38.0784 170.747 37.7711 170.715 37.4469C170.682 37.1227 170.747 36.7962 170.9 36.5087C171.053 36.2211 171.288 35.9855 171.575 35.8316C171.863 35.6776 172.189 35.6123 172.513 35.6439C172.837 35.6755 173.145 35.8025 173.397 36.009C173.649 36.2154 173.834 36.492 173.929 36.8037C174.024 37.1153 174.024 37.4482 173.93 37.76C173.868 37.9673 173.766 38.1603 173.629 38.3279C173.492 38.4955 173.323 38.6344 173.133 38.7366C172.942 38.8388 172.733 38.9023 172.518 38.9235C172.302 38.9447 172.085 38.9231 171.878 38.86ZM177.027 34.3C176.576 34.1649 176.176 33.8993 175.876 33.5366C175.576 33.1739 175.39 32.7305 175.343 32.2623C175.295 31.7942 175.387 31.3224 175.607 30.9065C175.827 30.4906 176.166 30.1494 176.58 29.9258C176.994 29.7023 177.465 29.6065 177.933 29.6507C178.402 29.6948 178.847 29.8768 179.212 30.1737C179.577 30.4706 179.846 30.869 179.984 31.3187C180.123 31.7684 180.125 32.2491 179.991 32.7C179.808 33.3038 179.394 33.8108 178.839 34.1105C178.283 34.4102 177.632 34.4783 177.027 34.3ZM178.262 39.7C178.033 39.632 177.84 39.4757 177.726 39.2654C177.612 39.0552 177.586 38.8083 177.654 38.579C177.722 38.3497 177.878 38.1569 178.089 38.0428C178.299 37.9288 178.546 37.903 178.775 37.971C179.004 38.039 179.197 38.1954 179.311 38.4056C179.425 38.6158 179.451 38.8627 179.383 39.092C179.315 39.3213 179.159 39.5142 178.948 39.6282C178.738 39.7422 178.491 39.768 178.262 39.7Z"></path><path id="Vector_5" fill="#1f00f3" d="M165.893 137.524C166.062 138.381 165.974 139.269 165.638 140.075C165.303 140.882 164.736 141.571 164.009 142.055C163.282 142.539 162.428 142.797 161.554 142.796C160.681 142.794 159.827 142.534 159.102 142.048C158.376 141.561 157.811 140.871 157.478 140.063C157.145 139.256 157.059 138.368 157.231 137.511C157.403 136.655 157.824 135.869 158.443 135.252C159.062 134.635 159.849 134.216 160.706 134.047C161.275 133.934 161.861 133.935 162.429 134.049C162.998 134.162 163.539 134.387 164.02 134.71C164.502 135.033 164.916 135.448 165.237 135.931C165.558 136.413 165.781 136.955 165.893 137.524Z"></path></g><g id="color 1"><path id="Vector_6" fill="#ff3e13" d="M140.754 51.875C140.472 42.204 147.635 44.104 151.454 56.929C149.934 50.431 159.4 42.565 160.076 79.878C159.726 80.0358 159.42 80.276 159.183 80.578C156.907 75.128 152.565 78.425 153.16 82.878C153.239 83.474 152.807 83.789 151.907 82.806C150.964 81.7512 149.865 82.3368 149.761 83.4719L147.268 83.7756C143.636 80.148 140.693 75.8859 138.588 71.197C134.351 62.324 136.745 52.026 143.908 66.618C141.941 61.945 140.871 56.9437 140.754 51.875Z"></path><path id="Vector_7" fill="#ff3e13" d="M151.47 86.339C151.857 87.5997 152.03 88.9162 151.982 90.234C151.801 88.679 151.063 87.5841 149.931 86.3877L151.47 86.339Z"></path><path id="Vector_8" fill="#ff3e13" d="M125.957 58.636C125.634 57.936 125.157 56.986 124.703 56.112C126.165 56.3 126.584 57.287 125.957 58.636Z"></path><path id="Vector_9" fill="#ff3e13" d="M119.554 92.932C118.129 93.54 117.73 96.219 118.262 99.962L126.679 98.556C124.455 95.269 121.511 92.134 119.554 92.932Z"></path><path id="Vector_10" fill="#ff3e13" d="M134.886 123.6C134.563 125.462 133.575 126.621 131.751 125.823C132.796 125.099 133.841 124.358 134.886 123.6Z"></path><path id="Vector_11" fill="#ff3e13" d="M114.824 65.193C113.095 65.098 112.524 64.034 113.36 62.457C113.797 63.3955 114.285 64.309 114.824 65.193Z"></path><path id="Vector_12" fill="#ff3e13" d="M153.638 96.637C153.638 96.851 153.553 97.0563 153.402 97.2076C153.25 97.359 153.045 97.444 152.831 97.444C152.617 97.444 152.412 97.359 152.26 97.2076C152.109 97.0563 152.024 96.851 152.024 96.637C152.024 96.423 152.109 96.2177 152.26 96.0664C152.412 95.915 152.617 95.83 152.831 95.83C153.045 95.83 153.25 95.915 153.402 96.0664C153.553 96.2177 153.638 96.423 153.638 96.637Z"></path><path id="Vector_13" fill="#ff3e13" d="M166.919 92.153C166.912 92.3622 166.823 92.5604 166.673 92.7059C166.522 92.8513 166.321 92.9326 166.112 92.9326C165.902 92.9326 165.701 92.8513 165.55 92.7059C165.4 92.5604 165.311 92.3622 165.304 92.153C165.311 91.9437 165.4 91.7455 165.55 91.6001C165.701 91.4547 165.902 91.3734 166.112 91.3734C166.321 91.3734 166.522 91.4547 166.673 91.6001C166.823 91.7455 166.912 91.9437 166.919 92.153Z"></path><path id="Vector_14" fill="#ff3e13" d="M172.2 77.752C172.193 77.9613 172.104 78.1595 171.954 78.3049C171.803 78.4503 171.602 78.5316 171.392 78.5316C171.183 78.5316 170.982 78.4503 170.831 78.3049C170.681 78.1595 170.592 77.9613 170.585 77.752C170.581 77.6436 170.599 77.5355 170.638 77.4342C170.677 77.3329 170.736 77.2404 170.811 77.1624C170.887 77.0843 170.977 77.0222 171.077 76.9798C171.177 76.9374 171.284 76.9156 171.392 76.9156C171.501 76.9156 171.608 76.9374 171.708 76.9798C171.808 77.0222 171.898 77.0843 171.974 77.1624C172.049 77.2404 172.108 77.3329 172.147 77.4342C172.186 77.5355 172.204 77.6436 172.2 77.752Z"></path><path id="Vector_15" fill="#ff3e13" d="M184.7 70.532C184.693 70.7412 184.604 70.9395 184.454 71.0849C184.303 71.2303 184.102 71.3116 183.893 71.3116C183.683 71.3116 183.482 71.2303 183.331 71.0849C183.181 70.9395 183.092 70.7412 183.085 70.532C183.092 70.3227 183.181 70.1245 183.331 69.9791C183.482 69.8337 183.683 69.7524 183.893 69.7524C184.102 69.7524 184.303 69.8337 184.454 69.9791C184.604 70.1245 184.693 70.3227 184.7 70.532Z"></path><path id="Vector_16" fill="#ff3e13" d="M150.352 110.108C150.345 110.317 150.256 110.515 150.106 110.661C149.955 110.806 149.754 110.888 149.544 110.888C149.335 110.888 149.134 110.806 148.983 110.661C148.833 110.515 148.744 110.317 148.737 110.108C148.744 109.899 148.833 109.701 148.983 109.555C149.134 109.41 149.335 109.328 149.544 109.328C149.754 109.328 149.955 109.41 150.106 109.555C150.256 109.701 150.345 109.899 150.352 110.108Z"></path><path id="Vector_17" fill="#ff3e13" d="M136.121 105.244C136.114 105.453 136.025 105.651 135.875 105.797C135.724 105.942 135.523 106.024 135.313 106.024C135.104 106.024 134.903 105.942 134.752 105.797C134.602 105.651 134.513 105.453 134.506 105.244C134.513 105.035 134.602 104.837 134.752 104.691C134.903 104.546 135.104 104.464 135.313 104.464C135.523 104.464 135.724 104.546 135.875 104.691C136.025 104.837 136.114 105.035 136.121 105.244Z"></path><path id="Vector_18" fill="#ff3e13" d="M140.339 91.2C140.332 91.4092 140.243 91.6075 140.093 91.7529C139.942 91.8983 139.741 91.9796 139.531 91.9796C139.322 91.9796 139.121 91.8983 138.97 91.7529C138.82 91.6075 138.731 91.4092 138.724 91.2C138.731 90.9907 138.82 90.7925 138.97 90.6471C139.121 90.5017 139.322 90.4204 139.531 90.4204C139.741 90.4204 139.942 90.5017 140.093 90.6471C140.243 90.7925 140.332 90.9907 140.339 91.2Z"></path><path id="Vector_19" fill="#ff3e13" d="M136.634 76.536C136.627 76.7452 136.538 76.9434 136.388 77.0889C136.237 77.2343 136.036 77.3156 135.826 77.3156C135.617 77.3156 135.416 77.2343 135.265 77.0889C135.115 76.9434 135.026 76.7452 135.019 76.536C135.026 76.3267 135.115 76.1285 135.265 75.9831C135.416 75.8377 135.617 75.7564 135.826 75.7564C136.036 75.7564 136.237 75.8377 136.388 75.9831C136.538 76.1285 136.627 76.3267 136.634 76.536Z"></path><path id="Vector_20" fill="#ff3e13" d="M121.093 70.532C121.086 70.7412 120.997 70.9395 120.847 71.0849C120.696 71.2303 120.495 71.3116 120.285 71.3116C120.076 71.3116 119.875 71.2303 119.724 71.0849C119.574 70.9395 119.485 70.7412 119.478 70.532C119.485 70.3227 119.574 70.1245 119.724 69.9791C119.875 69.8337 120.076 69.7524 120.285 69.7524C120.495 69.7524 120.696 69.8337 120.847 69.9791C120.997 70.1245 121.086 70.3227 121.093 70.532Z"></path><path id="Vector_21" fill="#ff3e13" d="M131.371 92.809H128.445L136.121 100.19L131.371 92.809Z"></path><path id="Vector_22" fill="#ff3e13" d="M156.26 91.241C155.543 91.0501 154.854 90.7692 154.208 90.405L156.146 92.97C156.095 92.3912 156.133 91.808 156.26 91.241Z"></path><path id="Vector_23" fill="#ff3e13" d="M156.716 96.029C157.406 99.5388 156.813 103.18 155.044 106.289L157.704 103.952C158.057 101.27 157.717 98.5422 156.716 96.029Z"></path></g><g id="outlines"><path id="Vector_24" stroke="#000000" stroke-linecap="round" stroke-linejoin="round" d="M160.079 79.88C159.395 42.565 149.934 50.431 151.454 56.929C147.635 44.104 140.474 42.204 140.754 51.875C140.872 56.9436 141.942 61.9448 143.908 66.618C136.745 52.027 134.353 62.323 138.588 71.197C140.687 75.8754 143.62 80.1285 147.241 83.7497M151.982 90.234C151.801 88.6753 151.058 87.5798 149.922 86.3799"></path><path id="Vector_25" stroke="#000000" stroke-linecap="round" stroke-linejoin="round" d="M58.775 126.162C50.4221 126.747 42.1087 124.569 35.115 119.965C28.1213 115.361 22.8354 108.584 20.0714 100.681C17.3073 92.7766 17.2185 84.1831 19.8185 76.2237C22.4186 68.2643 27.5633 61.3805 34.4602 56.6324C41.3572 51.8843 49.6239 49.5355 57.9871 49.9475C66.3503 50.3596 74.346 53.5097 80.7428 58.9128C87.1397 64.3158 91.5828 71.6721 93.3878 79.8485C95.1928 88.025 94.2596 96.5681 90.732 104.162"></path><path id="Vector_26" stroke="#000000" stroke-linecap="round" stroke-linejoin="round" d="M67.059 95.573C61.473 98.936 55.469 102.318 49.845 105.206"></path><path id="Vector_27" stroke="#000000" stroke-linecap="round" stroke-linejoin="round" d="M84.2 62.248C96.455 57.613 105.159 56.262 106.942 59.341C109.283 63.386 98.962 73.99 82.186 85.77"></path><path id="Vector_28" stroke="#000000" stroke-linecap="round" stroke-linejoin="round" d="M37.591 111.115C20.472 118.771 7.553 121.815 5.33 117.973C3.525 114.857 9.244 107.828 19.674 99.373"></path><path id="Vector_29" stroke="#000000" stroke-linecap="round" stroke-linejoin="round" d="M128.445 92.809L136.121 100.19L113.208 64.528"></path><path id="Vector_30" stroke="#000000" stroke-linecap="round" stroke-linejoin="round" d="M160.326 86.757C160.364 94.11 154.208 90.405 154.208 90.405"></path><path id="Vector_31" stroke="#000000" stroke-linecap="round" stroke-linejoin="round" d="M154.208 90.405L156.147 92.927"></path><path id="Vector_32" stroke="#000000" stroke-linecap="round" stroke-linejoin="round" d="M159.205 80.526C157.03 75.226 152.482 78.294 153.154 82.952C153.22 83.411 152.854 83.852 151.91 82.806C150.976 81.7657 149.884 82.3377 149.768 83.4572M150.086 90.5C151.34 91.773 152.841 91.811 151.473 86.339C151.408 86.292 151.344 86.2448 151.283 86.1973"></path><path id="Vector_33" stroke="#000000" stroke-linecap="round" stroke-linejoin="round" d="M126.07 56.853C131.448 66.06 144.056 86.492 152.727 92.799C153.207 93.1979 153.772 93.4822 154.378 93.6303C154.985 93.7785 155.617 93.7866 156.227 93.654C156.105 92.8468 156.117 92.0249 156.265 91.222"></path><path id="Vector_34" stroke="#000000" stroke-linecap="round" stroke-linejoin="round" d="M157.552 104.1C158.597 100.756 156.716 96.025 156.716 96.025C156.716 96.025 161.175 110.399 134.184 125.555"></path><path id="Vector_35" stroke="#000000" stroke-linecap="round" stroke-linejoin="round" d="M131.371 92.809H120.68"></path><path id="Vector_36" stroke="#000000" stroke-linecap="round" stroke-linejoin="round" d="M155.044 106.289C155.044 106.289 174.158 90.389 187.419 68.917C185.751 66.0471 183.098 63.8798 179.953 62.817C175.76 68.8646 171.219 74.663 166.353 80.183"></path><path id="Vector_37" stroke="#000000" stroke-linecap="round" stroke-linejoin="round" d="M126.7 123.749C114.769 127.511 102 129.513 88.683 130.722C86.0197 130.961 83.3524 130.31 81.0998 128.869C78.8473 127.428 77.1371 125.279 76.238 122.761C71.618 109.786 67.333 97.248 61.59 77.752C63.7244 75.9823 66.1599 74.6111 68.78 73.704C71.0884 72.9138 73.4969 72.4536 75.934 72.337L90.922 104.56L126.679 98.56"></path><path id="Vector_38" stroke="#000000" stroke-linecap="round" stroke-linejoin="round" d="M131.751 125.82C137.127 128.172 134.966 115.943 131.371 107.391C129.342 102.564 123.003 90.939 119.383 93.037C118.097 93.782 117.752 96.392 118.262 99.981"></path><path id="Vector_39" stroke="#000000" stroke-linecap="round" stroke-linejoin="round" d="M73.233 114.23L56.799 106.73C53.2095 110.128 50.7323 114.532 49.693 119.364C61.55 128.626 74.2241 136.791 87.559 143.759C89.1474 144.607 90.9063 145.086 92.7052 145.162C94.5041 145.238 96.297 144.907 97.951 144.196C110.976 138.695 123.361 131.787 134.886 123.596"></path><path id="Vector_40" stroke="#000000" stroke-linecap="round" stroke-linejoin="round" d="M73.822 72.527C70.142 72.9718 66.6158 74.2662 63.522 76.308C62.838 73.838 53.797 56.854 54.497 55.523C55.853 52.942 63.143 62.492 67.968 64.723C72.779 66.938 72.587 70.114 73.822 72.527Z"></path><path id="Vector_41" stroke="#000000" stroke-linecap="round" stroke-linejoin="round" d="M49.845 105.206C48.5944 105.038 47.323 105.115 46.102 105.434C40.934 106.649 29.763 103.553 29.839 106.46C29.896 108.378 49.56 116.188 50.358 116.985C51.4137 113.64 53.1909 110.568 55.564 107.985C53.8 107.163 52.372 105.605 49.845 105.206Z"></path><path id="Vector_42" stroke="#000000" stroke-linecap="round" stroke-linejoin="round" d="M117.217 46.137C117.217 46.137 117.217 43.876 117.198 40.361C117.178 36.675 118.608 35.969 119.155 40.152C119.214 40.608 119.915 45.187 120.124 46.536C120.238 47.277 120.769 49.323 121.454 49.236C123.333 48.991 126.874 44.88 127.989 46.101C128.715 46.901 126.53 49.789 124.911 51.744C124.455 52.2934 124.172 52.9656 124.098 53.6758C124.023 54.386 124.161 55.1022 124.494 55.734C124.55 55.846 125.856 58.473 125.957 58.634"></path><path id="Vector_43" stroke="#000000" stroke-linecap="round" stroke-linejoin="round" d="M117.5 47.068C117.5 47.068 115.069 39.373 114.916 38.86C113.71 34.829 112.422 35.745 113.016 39.373C113.582 42.832 114.216 47.049 114.216 47.049"></path><path id="Vector_44" stroke="#000000" stroke-linecap="round" stroke-linejoin="round" d="M114.823 48.3C113.646 45.9574 112.611 43.5464 111.723 41.08C110.275 37.13 109.192 38.117 109.861 41.745C110.225 43.9865 110.76 46.1969 111.461 48.357"></path><path id="Vector_45" stroke="#000000" stroke-linecap="round" stroke-linejoin="round" d="M113.349 62.477C112.529 64.043 113.103 65.099 114.824 65.193C118.324 65.383 124.486 61.776 125.957 58.636C126.589 57.289 126.165 56.302 124.703 56.112"></path><path id="Vector_46" stroke="#000000" stroke-linecap="round" stroke-linejoin="round" d="M112.807 50.338C111.426 48.5073 110.272 46.5161 109.37 44.408C107.721 40.508 106.684 41.579 107.603 45.282C107.848 46.27 108.103 47.124 108.325 47.847C108.975 49.917 109.598 52.008 110.187 54.098C110.831 56.398 113.073 62.629 114.824 65.198"></path><path id="Vector_47" stroke="#000000" stroke-linecap="round" stroke-linejoin="round" d="M118.737 46.688C115.203 47.809 113.208 49.614 110.909 52.54"></path><path id="Vector_48" stroke="#000000" stroke-linecap="round" stroke-linejoin="round" d="M119.611 48.341C118.366 49.5972 117.397 51.0994 116.765 52.7516C116.134 54.4038 115.854 56.1696 115.944 57.936"></path><path id="Vector_49" stroke="#000000" stroke-linecap="round" stroke-linejoin="round" d="M180.751 63.141C180.751 63.141 183.145 58.733 182.441 55.276C181.606 51.176 182.279 51.091 184.322 54.668C185.677 57.039 186.45 62.723 186.45 62.723"></path><path id="Vector_50" stroke="#000000" stroke-linecap="round" stroke-linejoin="round" d="M186.849 68.005C186.849 68.005 190.496 62.058 191.371 58.049C192.13 54.572 190.82 56.131 190.345 57.249"></path><path id="Vector_51" stroke="#000000" stroke-linecap="round" stroke-linejoin="round" d="M187.256 55.141C187.443 53.8524 187.504 52.5485 187.438 51.248C187.191 47.562 186.314 47.808 185.728 50.982C185.463 52.4716 185.108 53.9437 184.664 55.39"></path><path id="Vector_52" stroke="#000000" stroke-linecap="round" stroke-linejoin="round" d="M186.564 54.345C188.193 56.0873 189.224 58.303 189.509 60.671"></path><path id="Vector_53" stroke="#000000" stroke-linecap="round" stroke-linejoin="round" d="M187.438 53.167C187.723 52.367 187.99 51.474 188.238 50.488C189.108 47.029 189.872 47.733 189.701 50.849C189.565 53.0373 189.174 55.2023 188.536 57.3"></path><path id="Vector_54" stroke="#000000" stroke-linecap="round" stroke-linejoin="round" d="M189.509 53.11C190.402 49.348 191.297 49.956 191.048 53.357C190.834 55.6376 190.277 57.8728 189.395 59.987"></path><path id="Vector_55" stroke="#000000" stroke-linecap="round" stroke-linejoin="round" d="M55.241 144.325L55.697 146.947"></path><path id="Vector_56" stroke="#000000" stroke-linecap="round" stroke-linejoin="round" d="M53.664 149.854L51.023 150.329"></path><path id="Vector_57" stroke="#000000" stroke-linecap="round" stroke-linejoin="round" d="M61.245 148.524L58.604 148.98"></path><path id="Vector_58" stroke="#000000" stroke-linecap="round" stroke-linejoin="round" d="M57.027 154.528L56.571 151.887"></path><path id="Vector_59" stroke="#000000" stroke-linecap="round" stroke-linejoin="round" d="M58.6 148.98C58.2754 149.04 57.9423 149.034 57.6199 148.964C57.2974 148.894 56.9922 148.76 56.7218 148.571C56.4514 148.382 56.2212 148.141 56.0446 147.862C55.868 147.583 55.7485 147.272 55.693 146.947C55.7525 147.272 55.747 147.605 55.6767 147.927C55.6065 148.25 55.4729 148.555 55.2838 148.825C55.0947 149.096 54.8538 149.326 54.5751 149.502C54.2963 149.679 53.9853 149.799 53.66 149.854C53.9846 149.795 54.3177 149.8 54.6401 149.87C54.9626 149.941 55.2678 150.074 55.5382 150.263C55.8087 150.452 56.0388 150.693 56.2154 150.972C56.392 151.251 56.5115 151.562 56.567 151.887C56.5075 151.562 56.513 151.229 56.5833 150.907C56.6535 150.584 56.7871 150.279 56.9762 150.009C57.1653 149.738 57.4062 149.508 57.6849 149.332C57.9637 149.155 58.2747 149.035 58.6 148.98V148.98Z"></path><path id="Vector_60" stroke="#000000" stroke-linecap="round" stroke-linejoin="round" d="M93.202 31.602L93.525 33.445"></path><path id="Vector_61" stroke="#000000" stroke-linecap="round" stroke-linejoin="round" d="M92.081 35.497L90.238 35.82"></path><path id="Vector_62" stroke="#000000" stroke-linecap="round" stroke-linejoin="round" d="M97.438 34.566L95.577 34.889"></path><path id="Vector_63" stroke="#000000" stroke-linecap="round" stroke-linejoin="round" d="M94.456 38.803L94.133 36.941"></path><path id="Vector_64" stroke="#000000" stroke-linecap="round" stroke-linejoin="round" d="M95.577 34.889C95.3474 34.9296 95.112 34.9245 94.8844 34.8738C94.6567 34.8231 94.4414 34.728 94.2507 34.5938C94.06 34.4596 93.8977 34.289 93.7732 34.0918C93.6486 33.8947 93.5643 33.6749 93.525 33.445C93.5661 33.6749 93.5612 33.9105 93.5108 34.1385C93.4603 34.3665 93.3652 34.5822 93.231 34.7732C93.0968 34.9643 92.926 35.1269 92.7287 35.2516C92.5313 35.3763 92.3112 35.4608 92.081 35.5C92.3106 35.4594 92.546 35.4645 92.7736 35.5152C93.0013 35.5659 93.2166 35.661 93.4073 35.7952C93.598 35.9294 93.7603 36.1 93.8849 36.2972C94.0094 36.4943 94.0937 36.7141 94.133 36.944C94.0919 36.7142 94.0968 36.4785 94.1472 36.2505C94.1977 36.0225 94.2928 35.8068 94.427 35.6158C94.5613 35.4247 94.732 35.2622 94.9294 35.1374C95.1267 35.0127 95.3469 34.9283 95.577 34.889Z"></path><path id="Vector_65" stroke="#000000" stroke-linecap="round" stroke-linejoin="round" d="M184.493 83.395L185.31 87.992"></path><path id="Vector_66" stroke="#000000" stroke-linecap="round" stroke-linejoin="round" d="M181.738 93.084L177.141 93.901"></path><path id="Vector_67" stroke="#000000" stroke-linecap="round" stroke-linejoin="round" d="M195 90.747L190.402 91.564"></path><path id="Vector_68" stroke="#000000" stroke-linecap="round" stroke-linejoin="round" d="M187.647 101.235L186.83 96.637"></path><path id="Vector_69" stroke="#000000" stroke-linecap="round" stroke-linejoin="round" d="M190.4 91.564C189.251 91.7651 188.069 91.5018 187.115 90.832C186.16 90.1622 185.51 89.1407 185.308 87.992C185.509 89.1409 185.246 90.3225 184.576 91.2774C183.906 92.2322 182.885 92.882 181.736 93.084C182.885 92.8829 184.067 93.1462 185.021 93.816C185.976 94.4858 186.626 95.5073 186.828 96.656C186.627 95.5072 186.89 94.3255 187.56 93.3707C188.23 92.4158 189.251 91.766 190.4 91.564V91.564Z"></path><path id="Vector_70" stroke="#000000" stroke-linecap="round" stroke-linejoin="round" d="M161.561 138.379L126.317 152.856"></path><path id="Vector_71" stroke="#000000" stroke-linecap="round" stroke-linejoin="round" d="M117.996 163.629L161.561 138.379L108.496 179.645"></path><path id="Vector_72" stroke="#000000" stroke-linecap="round" stroke-linejoin="round" d="M165.893 137.524C166.062 138.381 165.974 139.269 165.638 140.075C165.303 140.882 164.736 141.571 164.009 142.055C163.282 142.539 162.428 142.797 161.554 142.796C160.681 142.794 159.827 142.534 159.102 142.048C158.376 141.561 157.811 140.871 157.478 140.063C157.145 139.256 157.059 138.368 157.231 137.511C157.403 136.655 157.824 135.869 158.443 135.252C159.062 134.635 159.849 134.216 160.706 134.047C161.275 133.934 161.861 133.935 162.429 134.049C162.998 134.162 163.539 134.387 164.02 134.71C164.502 135.033 164.916 135.448 165.237 135.931C165.558 136.413 165.781 136.955 165.893 137.524V137.524Z"></path><path id="Vector_73" stroke="#000000" stroke-linecap="round" stroke-linejoin="round" d="M163.176 79.31C184.341 58.353 147.521 41.31 168.686 20.355"></path><path id="Vector_74" stroke="#000000" stroke-linecap="round" stroke-linejoin="round" d="M70.231 73.249L83.93 110.431"></path><path id="Vector_75" stroke="#000000" stroke-linecap="round" stroke-linejoin="round" d="M83.93 110.431C84.6121 112.275 85.9133 113.825 87.6114 114.816C89.3095 115.807 91.299 116.177 93.24 115.864"></path><path id="Vector_76" stroke="#000000" stroke-linecap="round" stroke-linejoin="round" d="M93.259 115.864L132.226 109.519"></path><path id="Vector_77" stroke="#000000" stroke-linecap="round" stroke-linejoin="round" d="M149.307 86.435L154.968 85.751L154.531 82.844L146.742 83.851L149.307 86.435Z"></path><path id="Vector_78" stroke="#000000" stroke-linecap="round" stroke-linejoin="round" d="M160.82 79.652L156.754 80.26C156.403 80.3136 156.067 80.4357 155.763 80.6194C155.46 80.8031 155.196 81.0448 154.986 81.3306C154.776 81.6164 154.624 81.9408 154.54 82.2853C154.455 82.6297 154.439 82.9874 154.493 83.338L154.793 85.338C154.897 86.0456 155.278 86.6829 155.851 87.1102C156.425 87.5374 157.144 87.7197 157.852 87.617L161.9 87"></path><path id="Vector_79" stroke="#000000" stroke-linecap="round" stroke-linejoin="round" d="M164.943 86.548C165.294 86.4944 165.63 86.3723 165.933 86.1887C166.237 86.0051 166.501 85.7635 166.711 85.4778C166.921 85.192 167.072 84.8678 167.157 84.5234C167.242 84.1791 167.258 83.8215 167.204 83.471L166.904 81.471C166.8 80.7633 166.42 80.1257 165.846 79.6982C165.273 79.2707 164.553 79.0883 163.845 79.191L160.824 79.647C160.473 79.7006 160.137 79.8227 159.833 80.0064C159.53 80.1901 159.266 80.4318 159.056 80.7176C158.846 81.0034 158.694 81.3278 158.61 81.6723C158.525 82.0167 158.509 82.3744 158.563 82.725L158.863 84.72C158.912 85.0694 159.03 85.4056 159.209 85.7094C159.389 86.0132 159.626 86.2786 159.908 86.4904C160.19 86.7022 160.512 86.8563 160.853 86.9437C161.195 87.0312 161.551 87.0503 161.9 87L164.943 86.548Z"></path><path id="Vector_80" stroke="#000000" d="M175.507 27.4C173.964 27.4958 172.485 28.0468 171.256 28.9834C170.026 29.92 169.102 31.2001 168.6 32.6619C168.099 34.1237 168.042 35.7014 168.436 37.1956C168.831 38.6898 169.66 40.0334 170.819 41.0563C171.977 42.0793 173.413 42.7357 174.945 42.9427C176.476 43.1496 178.035 42.8977 179.423 42.2188C180.812 41.5399 181.968 40.4646 182.745 39.1287C183.522 37.7929 183.886 36.2565 183.79 34.714C183.727 33.6896 183.463 32.6876 183.013 31.7654C182.562 30.8432 181.934 30.0188 181.165 29.3395C180.396 28.6602 179.5 28.1392 178.529 27.8064C177.558 27.4736 176.531 27.3355 175.507 27.4V27.4ZM171.878 38.86C171.566 38.7659 171.289 38.5815 171.082 38.3299C170.875 38.0784 170.747 37.7711 170.715 37.4469C170.682 37.1227 170.747 36.7962 170.9 36.5087C171.053 36.2211 171.288 35.9855 171.575 35.8316C171.863 35.6776 172.189 35.6123 172.513 35.6439C172.837 35.6755 173.145 35.8025 173.397 36.009C173.649 36.2154 173.834 36.492 173.929 36.8037C174.024 37.1153 174.024 37.4482 173.93 37.76C173.868 37.9673 173.766 38.1603 173.629 38.3279C173.492 38.4955 173.323 38.6344 173.133 38.7366C172.942 38.8388 172.733 38.9023 172.518 38.9235C172.302 38.9447 172.085 38.9231 171.878 38.86ZM177.027 34.3C176.576 34.1649 176.176 33.8993 175.876 33.5366C175.576 33.1739 175.39 32.7305 175.343 32.2623C175.295 31.7942 175.387 31.3224 175.607 30.9065C175.827 30.4906 176.166 30.1494 176.58 29.9258C176.994 29.7023 177.465 29.6065 177.933 29.6507C178.402 29.6948 178.847 29.8768 179.212 30.1737C179.577 30.4706 179.846 30.869 179.984 31.3187C180.123 31.7684 180.125 32.2491 179.991 32.7C179.808 33.3038 179.394 33.8108 178.839 34.1105C178.283 34.4102 177.632 34.4783 177.027 34.3V34.3ZM178.262 39.7C178.033 39.632 177.84 39.4757 177.726 39.2654C177.612 39.0552 177.586 38.8083 177.654 38.579C177.722 38.3497 177.878 38.1569 178.089 38.0428C178.299 37.9288 178.546 37.903 178.775 37.971C179.004 38.039 179.197 38.1954 179.311 38.4056C179.425 38.6158 179.451 38.8627 179.383 39.092C179.315 39.3213 179.159 39.5142 178.948 39.6282C178.738 39.7422 178.491 39.768 178.262 39.7V39.7Z"></path></g></g></svg>