<svg xmlns="http://www.w3.org/2000/svg" fill="none" viewBox="0.125 0.125 199.75 199.75" stroke-width="0.5" height="400" width="400"><g id="Marketing-Digital-ads-performance-01"><g id="color 2"><path id="Vector" fill="#00ff84" d="M146.029 109C139.583 102.236 122.653 93.222 114.497 88.742C111.725 93.434 101.52 94.054 95.858 92.333C92.8568 94.6494 90.6033 97.7974 89.378 101.385C90.8006 103.446 89.378 110.445 88.84 115.56C89.5882 119.712 90.7228 123.785 92.229 127.726C89.129 124.268 85.883 120.867 83.261 118.283C72.061 111.622 74.599 113.083 70.55 110.721C70.0176 110.991 69.5035 111.296 69.011 111.633C66.5572 113.292 64.5562 115.537 63.1893 118.165C61.8224 120.792 61.1328 123.719 61.183 126.681C62.764 127.981 84.121 143.481 93.065 149.272C103.648 156.093 111.058 152.388 112.141 142.717C112.688 137.691 114.511 114.142 114.611 112.792C117.397 115.744 126.126 122.726 130.267 123.736C129.995 126.592 127.223 150.609 127.037 152.16C132.137 156.439 141.613 157.57 145.885 155.599C146.933 149.399 149.414 127.125 149.761 119.632C149.932 115.9 149.844 113 146.029 109Z"></path><path id="Vector_2" fill="#00ff84" d="M144.194 31.364C142.394 31.724 142.194 36.564 142.18 38.413C144.215 38.1727 146.279 38.4478 148.18 39.213C147.177 34.48 145.581 31.193 144.194 31.364Z"></path><path id="Vector_3" fill="#00ff84" d="M149.191 47.343C147.538 48.5416 145.614 49.3119 143.591 49.585C144.04 51.337 145.427 56.043 147.22 55.931C148.6 55.76 149.343 52.188 149.191 47.343Z"></path><path id="Vector_4" fill="#00ff84" d="M135.112 40.921L124.605 42.213C123.617 43.961 123.905 47.533 125.042 49.433C125.842 48.844 127.642 48.673 129.108 48.521C130.324 48.407 130.571 48.787 130.761 49.471C130.799 49.604 130.818 49.737 130.856 49.889C131.748 49.357 133.597 48.732 134.276 49.072L136.076 48.844C134.5 47.286 133.972 42.916 135.112 40.921Z"></path><path id="Vector_5" fill="#00ff84" d="M77.618 167.1L71.937 163.11C71.2992 162.664 70.8646 161.983 70.7289 161.217C70.5932 160.45 70.7675 159.661 71.2135 159.023C71.6595 158.386 72.3405 157.951 73.1069 157.815C73.8733 157.68 74.6622 157.854 75.3 158.3L76.174 158.908L76.782 158.034C77.228 157.397 77.9089 156.962 78.675 156.827C79.4411 156.692 80.2296 156.866 80.867 157.312C81.5045 157.758 81.9386 158.439 82.074 159.205C82.2094 159.971 82.035 160.76 81.589 161.397L77.618 167.1Z"></path></g><g id="color 1"><path id="Vector_6" fill="#202023" d="M55.996 56.007C58.5144 56.007 60.556 53.9654 60.556 51.447C60.556 48.9286 58.5144 46.887 55.996 46.887C53.4776 46.887 51.436 48.9286 51.436 51.447C51.436 53.9654 53.4776 56.007 55.996 56.007Z"></path><path id="Vector_7" fill="#202023" d="M139.919 156.517C136.047 156.422 132.26 155.364 128.899 153.439C127.892 156.539 125.992 158.588 125.308 160.127C128.272 166.359 140.033 176.827 146.835 180.927C146.424 169.818 139.532 164.65 139.919 156.517Z"></path><path id="Vector_8" fill="#202023" d="M65.382 108.485C66.351 109.131 67.453 110.404 68.992 111.639C67.0243 112.989 65.3431 114.714 64.0453 116.716C62.7474 118.719 61.8586 120.958 61.43 123.305C55.863 124.046 49.84 127.371 41.23 126.174C44.14 120.911 58.751 110.328 65.382 108.485Z"></path><path id="Vector_9" fill="#202023" d="M90.462 122.45C90.956 124.122 91.545 125.889 92.229 127.732C89.129 124.293 85.883 120.873 83.261 118.251C86.282 120.037 88.942 121.6 90.462 122.45Z"></path><path id="Vector_10" fill="#202023" d="M114.592 112.8C114.421 114.871 114.25 117.189 114.06 119.6C115.333 119.923 124.339 122.279 128.709 123.381C123.575 120.464 118.832 116.909 114.592 112.8V112.8Z"></path><path id="Vector_11" fill="#202023" d="M114.231 82.265C115.124 85.0009 116.171 87.6841 117.366 90.302C116.435 89.789 115.485 89.276 114.497 88.744C114.459 86.312 114.364 84.165 114.231 82.265Z"></path><path id="Vector_12" fill="#202023" d="M70.284 98.244C69.484 99.631 69.315 100.904 69.884 101.644C70.473 102.385 71.537 102.67 73.703 102.005C72.3532 100.96 71.1962 99.687 70.284 98.244V98.244Z"></path><path id="Vector_13" fill="#202023" d="M83.85 93.019C84.0641 93.3847 84.1378 93.8158 84.0574 94.2318C83.977 94.6479 83.7479 95.0205 83.413 95.28C82.178 94.064 81.038 92.924 80.069 91.88C82.256 91.593 83.187 92.217 83.85 93.019Z"></path><path id="Vector_14" fill="#202023" d="M89.227 76.432C88.3394 78.2989 87.3564 80.119 86.282 81.885C84.8 80.385 83.489 79.13 82.596 78.385C85.237 77.591 87.8 76.831 89.227 76.432Z"></path><path id="Vector_15" fill="#202023" d="M120.311 65.507C118.468 65.887 117.119 66.666 117.176 67.388C117.176 68.449 120.464 68.761 120.596 68.775C120.539 68.091 120.425 66.875 120.311 65.507Z"></path><path id="Vector_16" fill="#202023" d="M134.751 66.286C134.714 66.932 133.421 67.673 131.293 68.205C131.217 67.54 130.951 66.191 130.685 64.842C133.592 65.051 134.79 65.621 134.751 66.286Z"></path><path id="Vector_17" fill="#202023" d="M134.561 58.306C133.822 58.7754 132.994 59.0859 132.129 59.218C130.685 59.446 129.697 58.23 131.806 56.995C130.267 57.295 129.032 56.026 131.274 54.601C131.093 54.5988 130.913 54.5667 130.742 54.506C130.286 54.981 129.412 54.62 128.576 51.371C128.93 52.7274 128.943 54.1503 128.614 55.513C128.692 57.5484 129.252 59.5363 130.248 61.313C130.287 61.4018 130.338 61.4849 130.4 61.56C132.052 61.1785 133.639 60.5576 135.112 59.717C134.884 59.2652 134.699 58.7927 134.561 58.306Z"></path><path id="Vector_18" fill="#202023" d="M117.1 39.553C120.33 38.375 118.905 34.48 116.606 33.682C118.924 32.523 118.221 28.514 115.314 28.666C116.948 26.481 115.637 23.422 112.274 23.897C112.711 21.123 110.811 19.297 107.809 20.572C107.885 17.456 104.109 16.107 102.432 18.197C101.732 15.119 98.309 13.997 95.725 16.997C95.025 13.862 90.044 13.767 89.588 16.921C87.479 14.221 82.843 15.762 83.166 18.84C80.297 15.895 76.402 19.125 76.666 22.34C73.683 20.668 70.928 24.791 72.166 27.47C68.385 28.021 67.566 31.67 70 33.87C66.447 35.124 66.96 38.582 69.278 40.178C66.561 42.04 67.226 45.745 70.456 46.239C68.138 48.839 70.608 53.079 73.781 52.471C72.014 55.416 74.427 58.665 77.581 57.371C77.311 58.1238 77.3261 58.9494 77.6235 59.6918C77.9209 60.4341 78.4799 61.0418 79.195 61.4C81.456 60.583 86.833 58.55 86.833 58.55C93.027 56.137 94.509 51.444 95.706 46.561C92.267 45.461 93.768 42.02 95.497 43.35C97.15 44.623 96.618 42.913 96.447 41.089C98.6557 40.4423 100.932 40.0534 103.23 39.93C106.044 48.403 105.565 52.542 102.141 52.387C100.495 52.1521 98.9177 51.5728 97.511 50.687C97.9835 51.8727 98.6802 52.9561 99.563 53.878C99.563 55.851 100.957 58.351 103.914 59.997L104.978 60.586C105.491 60.871 106.061 61.194 106.65 61.555C107.337 61.3782 107.931 60.945 108.309 60.3444C108.687 59.7437 108.821 59.0212 108.683 58.325C109.278 58.7153 109.98 58.9093 110.69 58.8797C111.401 58.8501 112.084 58.5984 112.645 58.16C113.205 57.7216 113.613 57.1185 113.812 56.4358C114.012 55.753 113.992 55.0249 113.756 54.354C117.062 54.316 117.499 50.668 115.732 48.92C118.525 48.255 118.411 45.481 116.359 44.36C118.943 43.543 119.076 40.674 117.1 39.553Z"></path></g><g id="outlines"><path id="Vector_19" stroke="#000000" stroke-linecap="round" stroke-linejoin="round" d="M128.063 143.274L111.362 146.219"></path><path id="Vector_20" stroke="#000000" stroke-linecap="round" stroke-linejoin="round" d="M146.227 55.551L160.686 137.517L147.899 139.778"></path><path id="Vector_21" stroke="#000000" stroke-linecap="round" stroke-linejoin="round" d="M115.124 50.098L121.204 49.015"></path><path id="Vector_22" stroke="#000000" stroke-linecap="round" stroke-linejoin="round" d="M55.464 74.608L53.07 61.042L74.4736 57.2623"></path><path id="Vector_23" stroke="#000000" stroke-linecap="round" stroke-linejoin="round" d="M61.696 109.967L57.782 87.737"></path><path id="Vector_24" stroke="#000000" stroke-linecap="round" stroke-linejoin="round" d="M93.293 149.411L69.391 153.629L65.154 129.651"></path><path id="Vector_25" stroke="#000000" stroke-linecap="round" stroke-linejoin="round" d="M178.793 185.4L151.338 29.7C151.04 28.0025 150.411 26.3804 149.485 24.9266C148.56 23.4727 147.357 22.2156 145.945 21.2273C144.533 20.239 142.94 19.5389 141.257 19.167C139.575 18.7951 137.835 18.7587 136.138 19.06L112.398 23.2421M65.42 185.4L54.7184 124.956M68.6552 30.948L51.949 33.891C50.2508 34.1886 48.6279 34.818 47.1731 35.743C45.7182 36.6681 44.4599 37.8708 43.47 39.2824C42.4802 40.694 41.7781 42.2868 41.4041 43.9698C41.03 45.6528 40.9913 47.393 41.29 49.091V49.11L53.0151 115.335"></path><path id="Vector_26" stroke="#000000" stroke-linecap="round" stroke-linejoin="round" d="M175.753 68.281C178.418 68.281 180.579 66.1203 180.579 63.455C180.579 60.7897 178.418 58.629 175.753 58.629C173.088 58.629 170.927 60.7897 170.927 63.455C170.927 66.1203 173.088 68.281 175.753 68.281Z"></path><path id="Vector_27" stroke="#000000" stroke-linecap="round" stroke-linejoin="round" d="M190.174 78.199C192.839 78.199 195 76.0383 195 73.373C195 70.7077 192.839 68.547 190.174 68.547C187.509 68.547 185.348 70.7077 185.348 73.373C185.348 76.0383 187.509 78.199 190.174 78.199Z"></path><path id="Vector_28" stroke="#000000" stroke-linecap="round" stroke-linejoin="round" d="M173.967 81.144L191.922 55.494"></path><path id="Vector_29" stroke="#000000" stroke-linecap="round" stroke-linejoin="round" d="M192.3 28.457C191.82 28.1122 191.224 27.9707 190.64 28.0632C190.057 28.1557 189.534 28.4747 189.184 28.951L188.709 29.597C188.709 29.597 188.009 29.103 187.987 29.084C187.496 28.7652 186.899 28.6524 186.325 28.7699C185.751 28.8873 185.246 29.2256 184.92 29.7119C184.593 30.1981 184.47 30.7932 184.579 31.3689C184.687 31.9445 185.017 32.4546 185.498 32.789L189.811 35.81L192.832 31.497C193.154 31.0198 193.278 30.4366 193.179 29.8698C193.08 29.3029 192.765 28.7966 192.3 28.457V28.457Z"></path><path id="Vector_30" stroke="#000000" stroke-linecap="round" stroke-linejoin="round" d="M97.321 161.324C97.7378 160.456 97.8707 159.479 97.701 158.531C97.6115 157.434 97.1922 156.39 96.4983 155.536C95.8044 154.682 94.8682 154.057 93.813 153.745C92.7577 153.433 91.6326 153.447 90.5855 153.786C89.5385 154.125 88.6184 154.772 87.9463 155.644C87.2742 156.515 86.8815 157.57 86.8197 158.669C86.7579 159.767 87.03 160.859 87.6002 161.8C88.1704 162.742 89.012 163.489 90.0145 163.943C91.017 164.397 92.1334 164.537 93.217 164.345C94.3191 164.151 95.3417 163.643 96.162 162.882L98.556 163.395L97.321 161.324Z"></path><path id="Vector_31" stroke="#000000" stroke-linecap="round" stroke-linejoin="round" d="M153.732 154.617L157.874 149.791L163.403 152.907L161.674 143.141L152.003 144.851L153.732 154.617Z"></path><path id="Vector_32" stroke="#000000" stroke-linecap="round" stroke-linejoin="round" d="M63.14 50.193L69.5308 49.0663"></path><path id="Vector_33" stroke="#000000" stroke-linecap="round" stroke-linejoin="round" d="M21.226 120.265C22.5377 120.265 23.601 119.202 23.601 117.89C23.601 116.578 22.5377 115.515 21.226 115.515C19.9143 115.515 18.851 116.578 18.851 117.89C18.851 119.202 19.9143 120.265 21.226 120.265Z"></path><path id="Vector_34" stroke="#000000" stroke-linecap="round" stroke-linejoin="round" d="M35.4 117.757C36.7117 117.757 37.775 116.694 37.775 115.382C37.775 114.07 36.7117 113.007 35.4 113.007C34.0883 113.007 33.025 114.07 33.025 115.382C33.025 116.694 34.0883 117.757 35.4 117.757Z"></path><path id="Vector_35" stroke="#000000" stroke-linecap="round" stroke-linejoin="round" d="M23.544 117.472L33.063 115.8"></path><path id="Vector_36" stroke="#000000" stroke-linecap="round" stroke-linejoin="round" d="M5 96.23L10.168 95.318L20.181 115.762"></path><path id="Vector_37" stroke="#000000" stroke-linecap="round" stroke-linejoin="round" d="M18.49 112.323L36.274 107.25L38.269 97.617L13.436 102.006"></path><path id="Vector_38" stroke="#000000" stroke-linecap="round" stroke-linejoin="round" d="M22.138 55.817L24.19 67.464"></path><path id="Vector_39" stroke="#000000" stroke-linecap="round" stroke-linejoin="round" d="M28.997 60.624L17.35 62.676"></path><path id="Vector_40" stroke="#000000" stroke-linecap="round" stroke-linejoin="round" d="M182.726 100.353L186.317 120.797"></path><path id="Vector_41" stroke="#000000" stroke-linecap="round" stroke-linejoin="round" d="M194.753 108.789L174.29 112.38"></path><path id="Vector_42" stroke="#000000" stroke-linecap="round" stroke-linejoin="round" d="M131.293 68.186C131.141 66.78 130.077 62.315 130.248 61.286"></path><path id="Vector_43" stroke="#000000" stroke-linecap="round" stroke-linejoin="round" d="M128.633 55.684C128.798 57.7444 129.4 59.7459 130.4 61.555C132.055 61.182 133.643 60.5606 135.112 59.712C134.881 59.2698 134.697 58.805 134.561 58.325"></path><path id="Vector_44" stroke="#000000" stroke-linecap="round" stroke-linejoin="round" d="M149.21 47.343C149.362 52.188 148.602 55.764 147.234 55.931C145.487 56.145 143.396 50.82 142.56 44.037C141.724 37.254 142.465 31.576 144.213 31.364C145.6 31.195 147.196 34.48 148.203 39.211"></path><path id="Vector_45" stroke="#000000" stroke-linecap="round" stroke-linejoin="round" d="M136.081 48.844C134.504 47.286 133.972 42.916 135.112 40.921"></path><path id="Vector_46" stroke="#000000" stroke-linecap="round" stroke-linejoin="round" d="M125.042 49.433C123.902 47.533 123.617 43.961 124.605 42.213"></path><path id="Vector_47" stroke="#000000" stroke-linecap="round" stroke-linejoin="round" d="M142.2 38.413C147.007 37.938 151.149 39.913 151.51 42.954C151.871 45.995 148.356 48.901 143.568 49.585"></path><path id="Vector_48" stroke="#000000" stroke-linecap="round" stroke-linejoin="round" d="M134.276 49.072L136.081 48.844L146.398 55.665"></path><path id="Vector_49" stroke="#000000" stroke-linecap="round" stroke-linejoin="round" d="M143.472 31.82L135.112 40.92L123.769 42.307C118.791 42.915 119.209 50.401 124.244 50.268"></path><path id="Vector_50" stroke="#000000" stroke-linecap="round" stroke-linejoin="round" d="M120.311 65.507C118.449 65.887 117.119 66.666 117.176 67.369C117.252 68.3 119.646 69.13 126.22 68.851C131.236 68.638 134.7 67.351 134.751 66.267C134.781 65.62 133.573 65.032 130.685 64.823"></path><path id="Vector_51" stroke="#000000" stroke-linecap="round" stroke-linejoin="round" d="M83.413 95.3C83.7489 95.0411 83.9786 94.6685 84.0591 94.2521C84.1395 93.8358 84.0652 93.4044 83.85 93.039C82.975 91.664 79.895 91.019 75.167 93.704C70.794 96.187 68.661 100.098 69.885 101.665C70.46 102.402 71.538 102.691 73.704 102.026"></path><path id="Vector_52" stroke="#000000" stroke-linecap="round" stroke-linejoin="round" d="M80.05 91.879C82.273 94.273 85.337 97.137 88.619 100.296C89.1458 100.845 89.5409 101.507 89.7746 102.231C90.0083 102.955 90.0744 103.723 89.968 104.476C89.854 106.148 88.79 115.8 88.619 117.168C88.391 118.877 86.419 119.789 86.548 107.326"></path><path id="Vector_53" stroke="#000000" stroke-linecap="round" stroke-linejoin="round" d="M70.284 98.225C71.2454 99.8159 72.5323 101.185 74.0603 102.244C75.5883 103.302 77.3228 104.026 79.15 104.367"></path><path id="Vector_54" stroke="#000000" stroke-linecap="round" stroke-linejoin="round" d="M79.5 103.469C79.386 103.83 78.778 105.255 78.7 105.469"></path><path id="Vector_55" stroke="#000000" stroke-linecap="round" stroke-linejoin="round" d="M76.269 103.507C76.136 105.046 76.459 106.964 77.922 107.934C79.727 109.134 80.506 108.561 82.368 104.571"></path><path id="Vector_56" stroke="#000000" stroke-linecap="round" stroke-linejoin="round" d="M80.145 108.181C82.273 109.435 83.223 109.017 85.028 104.799"></path><path id="Vector_57" stroke="#000000" stroke-linecap="round" stroke-linejoin="round" d="M82.805 108.485C84.743 109.585 85.883 109.359 87.688 104.932"></path><path id="Vector_58" stroke="#000000" stroke-linecap="round" stroke-linejoin="round" d="M81.8 101.911C83.8435 101.887 85.8866 101.987 87.918 102.211"></path><path id="Vector_59" stroke="#000000" stroke-linecap="round" stroke-linejoin="round" d="M70.778 77.971C73.856 81.2 82.121 90.967 83.85 93"></path><path id="Vector_60" stroke="#000000" stroke-linecap="round" stroke-linejoin="round" d="M73.685 81.2C75.718 80.478 85.75 77.4 89.227 76.431C88.334 78.293 87.346 80.117 86.282 81.884"></path><path id="Vector_61" stroke="#000000" stroke-linecap="round" stroke-linejoin="round" d="M88.828 115.477C89.709 120.263 91.0712 124.948 92.894 129.461"></path><path id="Vector_62" stroke="#000000" stroke-linecap="round" stroke-linejoin="round" d="M82.6 78.408C85.336 80.669 91.872 87.68 95.862 92.335C92.8615 94.6283 90.6124 97.7637 89.402 101.341"></path><path id="Vector_63" stroke="#000000" stroke-linecap="round" stroke-linejoin="round" d="M65.42 96.819C65.04 92.829 72.735 85.799 78.986 87.319"></path><path id="Vector_64" stroke="#000000" stroke-linecap="round" stroke-linejoin="round" d="M120.615 68.775C120.539 67.521 120.178 64.519 120.121 61.992C120.026 57.774 120.328 56.728 121.413 54.692C122.397 52.8292 123.596 51.0883 124.985 49.505C125.735 48.85 127.626 48.674 129.146 48.536C130.362 48.426 130.598 48.799 130.799 49.486C131.098 50.8259 131.22 52.1994 131.16 53.571C131.12 54.73 129.83 56.098 128.633 51.371C129.241 54.202 128.956 56.671 126.714 58.171"></path><path id="Vector_65" stroke="#000000" stroke-linecap="round" stroke-linejoin="round" d="M134.542 53.461C135.549 53.822 135.559 55.204 134.504 55.912C133.687 56.4525 132.768 56.821 131.804 56.995C130.262 57.283 129.03 56.026 131.272 54.601"></path><path id="Vector_66" stroke="#000000" stroke-linecap="round" stroke-linejoin="round" d="M134.5 55.912C134.723 56.02 134.911 56.1873 135.045 56.3954C135.178 56.6034 135.252 56.8443 135.258 57.0916C135.264 57.3389 135.202 57.583 135.078 57.7972C134.954 58.0115 134.774 58.1875 134.557 58.306C133.819 58.7765 132.991 59.0872 132.125 59.218C130.68 59.442 129.693 58.23 131.802 56.995"></path><path id="Vector_67" stroke="#000000" stroke-linecap="round" stroke-linejoin="round" d="M130.932 49.87C131.792 49.3577 132.763 49.0593 133.763 49C135.168 48.917 135.283 50.8 133.934 51.337C133.056 51.7337 132.119 51.984 131.16 52.078"></path><path id="Vector_68" stroke="#000000" stroke-linecap="round" stroke-linejoin="round" d="M134.371 51.067C135.378 51.485 135.378 52.929 134.276 53.651C133.725 54.012 131.996 54.851 130.818 54.506"></path><path id="Vector_69" stroke="#000000" stroke-linecap="round" stroke-linejoin="round" d="M107.676 65.222C110.83 68.167 114.231 70.751 114.516 88.744C149.362 107.573 150.141 111.696 149.78 119.638C149.438 127.162 146.892 149.924 145.88 155.586C141.624 157.562 132.162 156.422 127.032 152.147C127.678 146.447 130.072 125.87 130.262 123.747C127.051 122.968 115.518 119.947 114.074 119.586"></path><path id="Vector_70" stroke="#000000" stroke-linecap="round" stroke-linejoin="round" d="M127.816 145.573C131.236 149.354 141.23 151.33 146.816 149.107"></path><path id="Vector_71" stroke="#000000" stroke-linecap="round" stroke-linejoin="round" d="M115.181 105.616C114.725 110.916 112.857 136.205 112.122 142.723C111.031 152.393 103.622 156.113 93.046 149.278C84.128 143.513 63.33 128.378 61.183 126.687C61.1327 123.424 61.9796 120.21 63.6315 117.395C65.2833 114.581 67.6766 112.274 70.55 110.727C76.383 114.109 86.776 120.398 90.462 122.427"></path><path id="Vector_72" stroke="#000000" stroke-linecap="round" stroke-linejoin="round" d="M65.952 130.221C65.895 124.483 70.075 116.142 76.117 114.033"></path><path id="Vector_73" stroke="#000000" stroke-linecap="round" stroke-linejoin="round" d="M95.858 92.335C101.976 94.273 111.932 93.076 114.516 88.763"></path><path id="Vector_74" stroke="#000000" stroke-linecap="round" stroke-linejoin="round" d="M98.537 92.943C91.469 103.526 93.711 120.075 97.264 137.65C86.206 130.6 72.108 122.108 69.2 120.056"></path><path id="Vector_75" stroke="#000000" stroke-linecap="round" stroke-linejoin="round" d="M128.9 153.458C127.912 156.558 125.993 158.607 125.309 160.146C128.273 166.359 140.053 176.828 146.836 180.932C146.399 169.632 139.274 163.946 139.92 156.555"></path><path id="Vector_76" stroke="#000000" stroke-linecap="round" stroke-linejoin="round" d="M68.992 111.639C67.453 110.423 66.351 109.15 65.382 108.485C58.751 110.328 44.14 120.911 41.233 126.155C49.84 127.355 55.882 124.046 61.433 123.286"></path><path id="Vector_77" stroke="#000000" stroke-linecap="round" stroke-linejoin="round" d="M134.751 66.286C134.998 94.577 134.485 97.486 132.3 98.871"></path><path id="Vector_78" stroke="#000000" stroke-linecap="round" stroke-linejoin="round" d="M117.176 67.388C117.955 71.796 119.798 83.842 120.444 86.844"></path><path id="Vector_79" stroke="#000000" stroke-linecap="round" stroke-linejoin="round" d="M118.354 74.475C122.854 76.337 132.376 75.995 134.808 72.875"></path><path id="Vector_80" stroke="#000000" stroke-linecap="round" stroke-linejoin="round" d="M114.611 112.8C118.847 116.914 123.591 120.47 128.728 123.383"></path><path id="Vector_81" stroke="#000000" stroke-linecap="round" stroke-linejoin="round" d="M83.261 118.251C85.861 120.873 89.132 124.274 92.229 127.732"></path><path id="Vector_82" stroke="#000000" stroke-linecap="round" stroke-linejoin="round" d="M114.231 82.246C115.121 84.983 116.167 87.6665 117.366 90.283"></path><path id="Vector_83" stroke="#000000" stroke-linecap="round" stroke-linejoin="round" d="M99.545 51.7C98.8535 51.3978 98.1806 51.0545 97.53 50.672C98.0088 51.8509 98.7014 52.9311 99.573 53.858"></path><path id="Vector_84" stroke="#000000" stroke-linecap="round" stroke-linejoin="round" d="M69.783 101.518C63.043 94.431 59.719 90.125 56.395 86.008C51.075 79.415 54.247 73.998 61.145 69.535C68.345 64.878 78.545 61.796 86.852 58.553C93.044 56.135 94.509 51.447 95.744 46.564C92.305 45.464 93.802 42.029 95.535 43.353C97.184 44.612 96.635 42.897 96.485 41.092C98.6962 40.4561 100.971 40.0674 103.268 39.933C106.677 50.245 105.236 54.147 99.545 51.696C99.178 56.496 101.536 58.665 103.933 59.996C107.41 61.934 113.243 65.088 117.974 72.156"></path><path id="Vector_85" stroke="#000000" stroke-linecap="round" stroke-linejoin="round" d="M85.788 58.971C91.545 60.871 99.388 65.83 103.496 69.098C104.407 66.3486 104.912 63.4812 104.996 60.586"></path><path id="Vector_86" stroke="#000000" stroke-linecap="round" stroke-linejoin="round" d="M79.214 61.4C78.5012 61.0404 77.9441 60.4333 77.6469 59.6923C77.3498 58.9513 77.3331 58.1274 77.6 57.375C74.446 58.667 72.033 55.437 73.8 52.475C70.627 53.083 68.157 48.846 70.475 46.262C67.245 45.749 66.575 42.044 69.297 40.182C66.979 38.582 66.466 35.128 70.019 33.874C67.587 31.674 68.404 28.022 72.185 27.474C70.95 24.795 73.705 20.674 76.685 22.344C76.419 19.152 80.314 15.903 83.185 18.844C82.862 15.766 87.498 14.227 89.607 16.925C90.063 13.771 95.041 13.866 95.744 17.001C98.328 14.001 101.744 15.12 102.451 18.201C104.123 16.111 107.904 17.46 107.828 20.576C110.828 19.303 112.728 21.127 112.293 23.901C115.656 23.426 116.967 26.485 115.333 28.67C118.259 28.518 118.943 32.527 116.625 33.686C118.925 34.486 120.349 38.379 117.119 39.557C117.587 39.8107 117.965 40.2029 118.202 40.6798C118.439 41.1568 118.522 41.6952 118.441 42.2214C118.36 42.7476 118.118 43.2359 117.749 43.6194C117.38 44.003 116.901 44.263 116.378 44.364C118.43 45.485 118.544 48.264 115.732 48.924C117.499 50.672 117.062 54.324 113.756 54.358C113.992 55.0289 114.012 55.757 113.813 56.4398C113.613 57.1225 113.205 57.7256 112.645 58.164C112.084 58.6024 111.401 58.8541 110.69 58.8837C109.98 58.9133 109.278 58.7193 108.683 58.329C108.821 59.0252 108.687 59.7477 108.309 60.3484C107.931 60.949 107.337 61.3822 106.65 61.559"></path><path id="Vector_87" stroke="#000000" stroke-linejoin="round" d="M77.618 167.1L71.937 163.11C71.2992 162.664 70.8646 161.983 70.7289 161.217C70.5932 160.45 70.7675 159.661 71.2135 159.023C71.6595 158.386 72.3405 157.951 73.1069 157.815C73.8733 157.68 74.6622 157.854 75.3 158.3L76.174 158.908L76.782 158.034C77.228 157.397 77.9089 156.962 78.675 156.827C79.4411 156.692 80.2296 156.866 80.867 157.312C81.5045 157.758 81.9386 158.439 82.074 159.205C82.2094 159.971 82.035 160.76 81.589 161.397L77.618 167.1Z"></path></g></g></svg>